<svg xmlns="http://www.w3.org/2000/svg" width="1200" height="280" viewBox="0 0 1200 280" role="img" aria-labelledby="title description">
  <title id="title">Daniel Campos Ramos</title>
  <desc id="description">Electrical engineering, open systems and collective intelligence. Connected layers symbolize hardware, software and people.</desc>
  <defs>
    <linearGradient id="background" x1="0" y1="0" x2="1" y2="1">
      <stop offset="0" stop-color="#f3f8ff"/>
      <stop offset="1" stop-color="#e8eef9"/>
    </linearGradient>
    <linearGradient id="accent" x1="0" y1="0" x2="1" y2="0">
      <stop offset="0" stop-color="#087f78"/>
      <stop offset="1" stop-color="#7651b5"/>
    </linearGradient>
  </defs>
<rect width="1200" height="280" rx="20" fill="url(#background)"/>
  <path d="M44 48H112" stroke="url(#accent)" stroke-width="5" stroke-linecap="round"/>
  <g font-family="DejaVu Sans, Arial, sans-serif">
    <text x="44" y="107" fill="#172a45" font-size="39" font-weight="700">Daniel Campos Ramos</text>
    <text x="44" y="150" fill="#344b69" font-size="22">Electrical engineering · Open systems</text>
    <text x="44" y="186" fill="#344b69" font-size="22">Collective intelligence</text>
    <text x="44" y="237" fill="#076c67" font-size="16" letter-spacing="1.3">ECHOSYSTEMS AI STUDIOS · BRASÍLIA, BRAZIL</text>
  </g>
  <g stroke-width="2" stroke-linejoin="round">
    <path d="M850 88L980 32L1110 88L980 145Z" fill="#eee8fc" stroke="#7651b5"/>
    <path d="M850 132L980 76L1110 132L980 189Z" fill="#e0edf9" stroke="#376b9d"/>
    <path d="M850 176L980 120L1110 176L980 233Z" fill="#d9f0ec" stroke="#087f78"/>
    <path d="M850 88V176M1110 88V176M980 145V233" fill="none" stroke="#7c8ca5" stroke-dasharray="5 6"/>
  </g>
  <g fill="#087f78">
    <circle cx="850" cy="176" r="5"/>
    <circle cx="1110" cy="176" r="5"/>
    <circle cx="980" cy="233" r="5"/>
  </g>
</svg>
